<svg xmlns="http://www.w3.org/2000/svg" width="46" height="77" viewBox="0 0 46 77">
  <metadata><?xpacket begin="﻿" id="W5M0MpCehiHzreSzNTczkc9d"?>
<x:xmpmeta xmlns:x="adobe:ns:meta/" x:xmptk="Adobe XMP Core 5.6-c138 79.159824, 2016/09/14-01:09:01        ">
   <rdf:RDF xmlns:rdf="http://www.w3.org/1999/02/22-rdf-syntax-ns#">
      <rdf:Description rdf:about=""/>
   </rdf:RDF>
</x:xmpmeta>
                                                                                                    
                                                                                                    
                                                                                                    
                                                                                                    
                                                                                                    
                                                                                                    
                                                                                                    
                                                                                                    
                                                                                                    
                                                                                                    
                                                                                                    
                                                                                                    
                                                                                                    
                                                                                                    
                                                                                                    
                                                                                                    
                                                                                                    
                                                                                                    
                                                                                                    
                                                                                                    
                           
<?xpacket end="w"?></metadata>
<defs>
    <style>
      .cls-1 {
        fill-rule: evenodd;
      }
    </style>
  </defs>
  <path class="cls-1" d="M734.553,932.175a18.762,18.762,0,0,1,2.814-1.515l0.824-3.252,0.019-.079h2.152c0-.085.007-0.169,0.009-0.254,0.012-.3.024-0.609,0.022-0.913v-0.5l-0.417-2.654a7.757,7.757,0,0,1-2.958-5.03,8.67,8.67,0,0,1-.178-2.144l-0.015-.026c-3.927-8.218-3.328-15.413,1.783-21.388a0.551,0.551,0,0,1,.624-0.145,0.516,0.516,0,0,1,.318.539l-0.1.751c1.994-2.028,6.547-6.209,10.494-6.564a0.535,0.535,0,0,1,.522.273,0.5,0.5,0,0,1-.061.569l-0.61.71a32.615,32.615,0,0,1,11.572-.516,0.521,0.521,0,0,1,.442.473,0.512,0.512,0,0,1-.372.525l-1.054.322a17.736,17.736,0,0,1,6.437,4.327,12.442,12.442,0,0,1,2.914,11.12,0.527,0.527,0,0,1-.479.424,0.544,0.544,0,0,1-.549-0.336c-0.05-.132-0.1-0.27-0.16-0.407a24.316,24.316,0,0,1-.918,2.662,0.542,0.542,0,0,1-.58.319,0.832,0.832,0,0,1-.108-0.023l-1.737,16.09a3.861,3.861,0,0,1-.509,1.549l-3.265,5.587a4.993,4.993,0,0,1-1.127,1.338,0.522,0.522,0,0,1,.212.293l0.553,0.469a21.074,21.074,0,0,1,7.068,15.628v5.354h-1.2v9.721a0.527,0.527,0,0,1-.543.515,0.544,0.544,0,0,1-.378-0.151,0.5,0.5,0,0,1-.155-0.364v-9.721h-1.855v9.721a0.535,0.535,0,0,1-1.069,0V951.87a18.355,18.355,0,0,0-1.062-6.214,0.515,0.515,0,0,1,.331-0.659,0.542,0.542,0,0,1,.683.321,19.357,19.357,0,0,1,1.117,6.552v2.856h3.06V950.4a20.058,20.058,0,0,0-6.724-14.873l-0.116-.1c-0.636,1.729-2.311,5.537-5.118,6.888l-0.309.143-1.109-.857v23.328a0.535,0.535,0,0,1-1.069,0v-23.9a0.45,0.45,0,0,1,.054-0.211l-2.08-1.608-4.184,3.225-0.283-.07-0.062-.029c-1.063-.508-4.808-2.772-8.565-10.584a18.181,18.181,0,0,0-2.359,1.345,20.091,20.091,0,0,0-10.085,17.3v4.324h6.923V951.87a19.484,19.484,0,0,1,1.306-7.042,0.522,0.522,0,0,1,.28-0.289,0.539,0.539,0,0,1,.408-0.014,0.519,0.519,0,0,1,.3.268,0.494,0.494,0,0,1,.015.395,18.485,18.485,0,0,0-1.232,6.682v13.607a0.539,0.539,0,0,1-1.077,0v-9.721h-5.119v9.721a0.535,0.535,0,0,1-1.069,0v-9.721h-1.8V950.4A21.07,21.07,0,0,1,734.553,932.175Zm10.819,4.6c-5.364-5.329-5.32-5.634-5.27-5.986,0.1-.757.177-1.554,0.227-2.431h-1.285l-0.664,2.54a0.491,0.491,0,0,1-.015.261c0.89,1.862,3.991,7.861,7.885,10.085l3.269-2.522A6.893,6.893,0,0,1,745.372,936.776Zm14.007-2.144a5.24,5.24,0,0,1-1.735.567,5.448,5.448,0,0,1-.777.059,5.148,5.148,0,0,1-1.188-.153,2.509,2.509,0,0,1-.687,1.839,6.829,6.829,0,0,1-3.418,1.7l3.362,2.593c2.614-1.508,4.134-5.668,4.446-6.6A0.041,0.041,0,0,0,759.379,934.632Zm-6.015-.691-1.041-.411a1.259,1.259,0,0,1-.21,1.235l-0.607.742a0.553,0.553,0,0,1-.755.085,0.511,0.511,0,0,1-.2-0.344,0.5,0.5,0,0,1,.111-0.38l0.607-.741a0.27,0.27,0,0,0,.036-0.286l-0.348-.849-2.131-.841a6.788,6.788,0,0,1-4-4.146,0.514,0.514,0,0,1,.33-0.625,0.548,0.548,0,0,1,.408.015,0.523,0.523,0,0,1,.279.294,5.785,5.785,0,0,0,3.357,3.5l2.247,0.893a0.469,0.469,0,0,1,.194.073l2.2,0.872L754,933.126a4.178,4.178,0,0,0,.815.573,4.253,4.253,0,0,0,5.668-1.554l3.265-5.588,0,0a2.871,2.871,0,0,0,.437-1.042l1.618-15.357-5.565.432,1.5-1.685h4.138a11.482,11.482,0,0,0-.445-2.8,2.7,2.7,0,0,0-.674-0.79c-1.025-.811-2.792-1.046-5.252-0.694-0.483.068-1.07,0.124-1.7,0.183-0.327.03-.666,0.062-1,0.1a0.46,0.46,0,0,1,.163.4,0.567,0.567,0,0,1-.453.508,20.774,20.774,0,0,1-8.226-.258c0.041,0.07.079,0.14,0.112,0.21,0.521,1.088.286,2.367-.7,3.8-1.231,1.794-1.793,3.382-1.625,4.6a2.866,2.866,0,0,1-1.842,3.041,0.553,0.553,0,0,1-.5-0.048,0.512,0.512,0,0,1-.238-0.42c0-.127-0.1-3.114-1.567-4.47a3.451,3.451,0,0,0-.3-0.234,3.1,3.1,0,0,0-1.555-.152,2.6,2.6,0,0,0-.727.352,10.518,10.518,0,0,0-1.388,3,7.6,7.6,0,0,0,.1,2.515c0.559,2.882,2.422,5.081,4.055,4.805a0.552,0.552,0,0,1,.4.085,0.521,0.521,0,0,1,.223.336,0.507,0.507,0,0,1-.088.391,0.54,0.54,0,0,1-.348.215,2.775,2.775,0,0,1-.491.043h-0.007a2.943,2.943,0,0,1-.676-0.081l0.322,2.063v0.568a33.57,33.57,0,0,1-.279,4.645c0.145,0.234.914,1.235,4.953,5.245l0.006,0a5.839,5.839,0,0,0,4.061,1.68h0.073a5.844,5.844,0,0,0,4.028-1.582,2.357,2.357,0,0,0,.326-1.4A5.12,5.12,0,0,1,753.364,933.941Zm4.815-42.6a0.518,0.518,0,0,1,.373-0.5l0.15-.046a36.132,36.132,0,0,0-10.205,1.138,0.544,0.544,0,0,1-.6-0.211,0.5,0.5,0,0,1,.035-0.612l0.664-.772c-4.494,1.44-9.434,7.069-9.485,7.129a0.547,0.547,0,0,1-.624.139,0.517,0.517,0,0,1-.315-0.538l0.058-.434c-3.428,4.949-3.795,10.755-1.092,17.268,0.042-.171.088-0.342,0.144-0.507a3.466,3.466,0,0,1,1.37-1.972,2.115,2.115,0,0,1,1.507-.834h0.078a3.506,3.506,0,0,1,1.886.509,4.027,4.027,0,0,1,2.049,1.779,0.506,0.506,0,0,1-.208.7,10.276,10.276,0,0,1,.534,2.235,1.793,1.793,0,0,0,.52-1.52c-0.2-1.485.4-3.267,1.794-5.3,0.766-1.116.974-2.058,0.62-2.8a2.7,2.7,0,0,0-1.119-1.11,29.976,29.976,0,0,1-2.99-.951,0.512,0.512,0,0,1-.317-0.606,0.527,0.527,0,0,1,.582-0.382,9.5,9.5,0,0,1,3.085.957,26.271,26.271,0,0,0,7.552.951,0.5,0.5,0,0,1-.1-0.313,0.57,0.57,0,0,1,.419-0.524,21.237,21.237,0,0,1,3.17-.441c0.6-.056,1.169-0.11,1.633-0.175,2.463-.35,4.364-0.139,5.651.631a0.539,0.539,0,0,1,.206-0.165,0.551,0.551,0,0,1,.409-0.019,0.524,0.524,0,0,1,.3.27,11.778,11.778,0,0,1,.5,1.389,5.545,5.545,0,0,1,.581,2.121,23.8,23.8,0,0,0,.844-2.908l0-.012a0.608,0.608,0,0,1,.533-0.382,0.561,0.561,0,0,1,.527.286c0.629-10.061-9.879-12.863-10.331-12.978A0.524,0.524,0,0,1,758.179,891.345ZM759.5,922.59h-2.078a0.515,0.515,0,1,1,0-1.03h2.071a1.013,1.013,0,0,0,.737-0.27,0.967,0.967,0,0,0,.044-1.4,1.032,1.032,0,0,0-.716-0.312h-0.4l-1.18-5.448,0-.018,0.242-1.584a0.534,0.534,0,0,1,.613-0.437,0.523,0.523,0,0,1,.453.591l-0.219,1.4,0.983,4.56a2.029,2.029,0,0,1,1.515,1.907,1.962,1.962,0,0,1-.59,1.434A2.112,2.112,0,0,1,759.5,922.59Zm-17.613-7.058-1.085-1.153a0.31,0.31,0,0,0-.115-0.08,0.335,0.335,0,0,0-.432.167l-0.545,1.258a0.568,0.568,0,0,0,.249.7l1.173,0.6a0.512,0.512,0,0,1,.257.567l-0.325,1.328a0.556,0.556,0,0,0,0,.269,0.578,0.578,0,0,0,.269.36,0.622,0.622,0,0,0,.455.071,0.55,0.55,0,0,1,.669.379,0.529,0.529,0,0,1-.391.644,1.667,1.667,0,0,1-.795.026,1.661,1.661,0,0,1-1.054-.7,1.551,1.551,0,0,1-.232-1.215l0.237-.956-0.785-.447a1.582,1.582,0,0,1-.712-2.025l0.547-1.261a1.323,1.323,0,0,1,.349-0.476,1.434,1.434,0,0,1,1.974.093l1.082,1.158a0.418,0.418,0,0,1,.041.045,0.5,0.5,0,0,1-.082.723A0.549,0.549,0,0,1,741.888,915.532Zm11.269-3.863a1.367,1.367,0,0,1,1.389,1.34v1.236a1.39,1.39,0,0,1-2.778,0v-1.236A1.367,1.367,0,0,1,753.157,911.669Zm8.868,1.34a1.39,1.39,0,0,1,2.778,0v1.236a1.39,1.39,0,0,1-2.778,0v-1.236Zm-11.432,28.332a1.34,1.34,0,1,1-1.389,1.339A1.366,1.366,0,0,1,750.593,941.341Zm0,1.648a0.309,0.309,0,1,0-.32-0.309A0.316,0.316,0,0,0,750.593,942.989Zm0,4.945a1.34,1.34,0,1,1-1.389,1.339A1.366,1.366,0,0,1,750.593,947.934Zm0,1.649a0.31,0.31,0,1,0-.32-0.31A0.316,0.316,0,0,0,750.593,949.583Zm0,4.945a1.34,1.34,0,1,1-1.389,1.339A1.366,1.366,0,0,1,750.593,954.528Zm0,1.648a0.309,0.309,0,1,0-.32-0.309A0.315,0.315,0,0,0,750.593,956.176Zm0,4.945a1.34,1.34,0,1,1-1.389,1.339A1.366,1.366,0,0,1,750.593,961.121Zm0,1.649a0.31,0.31,0,1,0-.32-0.31A0.316,0.316,0,0,0,750.593,962.77ZM746,956.217l-4.768,1.806-0.039.015-4.808-1.821V947.11H746v9.107Zm-2.153-6.367a0.525,0.525,0,0,1,.534-0.515h0.551v-1.2h-7.479v1.2h0.09a0.515,0.515,0,1,1,0,1.03h-0.09v5.185l3.739,1.442,3.74-1.474v-5.153H744.38A0.524,0.524,0,0,1,743.846,949.85Zm-10.884-12.976h0a0.545,0.545,0,0,1-.381-0.155l0,0a1.641,1.641,0,0,0-.229-0.2,0.506,0.506,0,0,1-.144-0.716,0.549,0.549,0,0,1,.746-0.137,2.539,2.539,0,0,1,.4.343,0.5,0.5,0,0,1-.009.71A0.548,0.548,0,0,1,732.962,936.874Zm0.748,0.514a0.556,0.556,0,0,1,.411,0,0.531,0.531,0,0,1,.29.282,7.816,7.816,0,0,1,.311.9,0.516,0.516,0,0,1-.374.629l-0.133,0h-0.03a0.539,0.539,0,0,1-.5-0.335,6.475,6.475,0,0,0-.269-0.811,0.5,0.5,0,0,1,0-.395A0.529,0.529,0,0,1,733.71,937.388Zm0.832,4.423h-0.023a0.546,0.546,0,0,1-.52-0.525v-0.817a0.531,0.531,0,0,1,1.06-.064v0.943A0.512,0.512,0,0,1,734.542,941.811Zm-0.624,2a0.5,0.5,0,0,1-.1-0.383l0-.021a1.012,1.012,0,0,0,.046-0.371,0.543,0.543,0,0,1,.956-0.258,0.491,0.491,0,0,1,.11.38l-0.006.027a1,1,0,0,0-.053.4,0.529,0.529,0,0,1-.538.441l-0.072-.007A0.545,0.545,0,0,1,733.918,943.806Zm28.4-3.868-0.145-.016-0.025,0a0.512,0.512,0,0,1-.321-0.658,4,4,0,0,1,.173-0.417,0.415,0.415,0,0,1,.027-0.056,0.525,0.525,0,0,1,.314-0.252,0.552,0.552,0,0,1,.407.037,0.509,0.509,0,0,1,.261.3,0.488,0.488,0,0,1-.035.389,3.17,3.17,0,0,0-.141.338,0.54,0.54,0,0,1-.513.338h0Zm-0.3.542a0.544,0.544,0,0,1,.36.191,0.5,0.5,0,0,1,.114.381,6.529,6.529,0,0,0-.05.814,0.529,0.529,0,0,1-.534.5h-0.095l-0.01-.084a0.543,0.543,0,0,1-.281-0.149,0.5,0.5,0,0,1-.148-0.366c0-.287.022-0.567,0.051-0.834A0.533,0.533,0,0,1,762.02,940.48Zm-0.063,2.494h0a0.52,0.52,0,0,1,.58.428,1.131,1.131,0,0,1,.056.426,0.521,0.521,0,0,1-.464.587h-0.094a0.528,0.528,0,0,1-.489-0.439,1.117,1.117,0,0,1-.062-0.436A0.52,0.52,0,0,1,761.957,942.974Zm-7.3-34.074,1.5,1.685-5.116-.406-3.313,1.723,2.59-3h4.339Zm-11.989,41.465h-0.855a0.515,0.515,0,1,1,0-1.03h0.855A0.515,0.515,0,1,1,742.671,950.365Zm-2.564,0h-0.855a0.515,0.515,0,1,1,0-1.03h0.855A0.515,0.515,0,1,1,740.107,950.365Zm10.511-27.354a0.544,0.544,0,0,1,.408-0.015,0.527,0.527,0,0,1,.3.268,0.509,0.509,0,0,1-.265.686,1.053,1.053,0,0,0-.631,1.293,0.514,0.514,0,0,1-.353.639l-0.158,0h-0.009a0.529,0.529,0,0,1-.514-0.379A2.05,2.05,0,0,1,750.618,923.011Zm2.395,1.871c3.012,1.3,7.141.587,8.334,0.337,0.07-.015.08-0.018,0.067-0.013a0.548,0.548,0,0,1,.663.384,0.528,0.528,0,0,1-.4.64,19.8,19.8,0,0,1-4.3.481l-0.22,0a12.152,12.152,0,0,1-4.584-.892l-0.009,0a0.508,0.508,0,0,1-.25-0.639A0.542,0.542,0,0,1,753.013,924.882Zm2.746,2.973,0,0a4.721,4.721,0,0,0,3.569,0,0.545,0.545,0,0,1,.673.263,0.5,0.5,0,0,1,.019.394,0.517,0.517,0,0,1-.278.292,5.76,5.76,0,0,1-4.4,0,0.509,0.509,0,0,1-.272-0.649A0.539,0.539,0,0,1,755.759,927.855Z" transform="translate(-724 -889)"/>
</svg>
